<?xml version="1.0" encoding="utf-8"?>
<!-- Generator: Adobe Illustrator 16.0.0, SVG Export Plug-In . SVG Version: 6.00 Build 0)  -->
<!DOCTYPE svg PUBLIC "-//W3C//DTD SVG 1.1//EN" "http://www.w3.org/Graphics/SVG/1.1/DTD/svg11.dtd">
<svg version="1.1" id="Layer_1" xmlns="http://www.w3.org/2000/svg" xmlns:xlink="http://www.w3.org/1999/xlink" x="0px" y="0px"
	 width="456.755px" height="253.306px" viewBox="0 0 456.755 253.306" enable-background="new 0 0 456.755 253.306"
	 xml:space="preserve">
<g>
	<rect x="82.513" y="56.287" fill="#010101" width="10.792" height="55.288"/>
	<path fill-rule="evenodd" clip-rule="evenodd" fill="#010101" d="M320.703,111.574l-12.348-23.837
		c5.355-1.938,10.088-6.755,10.088-14.521c0-9.239-6.676-16.929-17.934-16.929h-21.664v55.287h10.793V89.526h7.768l10.787,22.048
		H320.703z M307.656,73.216c0,4.275-3.109,7.303-7.842,7.303h-10.176V65.922h10.176C304.546,65.922,307.656,68.944,307.656,73.216"
		/>
	<polygon fill="#010101" points="67.949,56.287 56.688,56.287 48.067,91.16 37.972,56.287 29.893,56.287 19.802,91.16 
		11.257,56.287 0,56.287 14.754,111.574 23.76,111.574 33.935,78.031 44.108,111.574 53.112,111.574 	"/>
	<polygon fill="#010101" points="148.261,111.574 148.261,101.947 122.635,101.947 122.635,88.513 144.456,88.513 144.456,78.885 
		122.635,78.885 122.635,65.922 148.261,65.922 148.261,56.287 111.843,56.287 111.843,111.574 	"/>
	<polygon fill="#010101" points="207.886,111.574 207.886,56.287 197.089,56.287 197.089,90.144 175.196,56.287 165.567,56.287 
		165.567,111.574 176.361,111.574 176.361,77.643 198.259,111.574 	"/>
	<polygon fill="#010101" points="262.625,111.574 262.625,101.947 236.995,101.947 236.995,88.513 258.822,88.513 258.822,78.885 
		236.995,78.885 236.995,65.922 262.625,65.922 262.625,56.287 226.205,56.287 226.205,111.574 	"/>
	<path fill-rule="evenodd" clip-rule="evenodd" fill="#010101" d="M303.351,170.254h-13.527l6.879-20.24L303.351,170.254z
		 M320.469,189.246l-19.87-55.645h-8.326l-19.793,55.645h11.08l3.285-9.848h19.334l3.207,9.848H320.469z"/>
	<path fill="#010101" d="M90.082,172.889c0-4.912-1.294-8.965-4.169-11.768c-2.273-2.184-5.377-3.584-10.301-4.289l-6.361-0.941
		c-2.196-0.311-3.94-1.168-4.998-2.178c-1.138-1.092-1.592-2.57-1.592-3.975c0-3.82,2.729-7.016,8.331-7.016
		c3.559,0,7.651,0.465,11.058,3.82l6.665-6.79c-4.62-4.594-9.996-6.464-17.418-6.464c-11.668,0-18.783,6.936-18.783,16.841
		c0,4.677,1.292,8.261,3.861,10.911c2.425,2.416,5.833,3.904,10.452,4.604l6.515,0.934c2.499,0.387,3.708,0.938,4.77,1.951
		c1.135,1.084,1.665,2.725,1.665,4.678c0,4.441-3.33,6.855-9.542,6.855c-5,0-9.616-1.17-13.03-4.67l-6.814,7.006
		c5.303,5.539,11.511,7.334,19.694,7.334C81.371,189.732,90.082,183.646,90.082,172.889"/>
	<rect x="101.275" y="133.906" fill="#010101" width="10.458" height="55.338"/>
	<path fill-rule="evenodd" clip-rule="evenodd" fill="#010101" d="M268.476,189.246l-12.037-23.859
		c5.221-1.939,9.834-6.76,9.834-14.533c0-9.248-6.508-16.945-17.482-16.945H227.67v55.338h10.522v-22.068h7.573l10.516,22.068
		H268.476z M255.757,150.854c0,4.279-3.031,7.311-7.645,7.311h-9.92v-14.611h9.92C252.726,143.553,255.757,146.578,255.757,150.854"
		/>
	<polygon fill="#010101" points="369.227,189.246 369.227,133.908 358.678,133.908 358.678,167.797 337.288,133.908 
		327.879,133.908 327.879,189.246 338.426,189.246 338.426,155.285 359.823,189.246 	"/>
	<polygon fill="#010101" points="455.525,189.23 455.525,179.594 430.419,179.594 430.419,166.148 451.796,166.148 451.796,156.511 
		430.419,156.511 430.419,143.535 455.525,143.535 455.525,133.89 419.849,133.89 419.849,189.23 	"/>
	<path fill="#010101" d="M38.054,139.213c-3.797-3.818-8.679-5.923-14.571-5.923c-5.884,0-10.688,2.105-14.479,5.923
		c-5.426,5.461-5.353,11.616-5.353,22.299c0,10.682-0.073,16.837,5.353,22.295c3.792,3.82,8.595,5.926,14.479,5.926
		c5.892,0,10.774-2.105,14.571-5.926c5.421-5.458,5.264-11.613,5.264-22.295C43.318,150.829,43.475,144.674,38.054,139.213
		 M16.732,177.035c-2.252-2.682-2.707-5.5-2.707-15.58c0-10.082,0.455-12.902,2.707-15.58c1.61-1.906,4.124-3.105,6.831-3.105
		c2.713,0,5.221,1.199,6.836,3.105c2.255,2.678,2.707,5.498,2.707,15.58c0,10.08-0.452,12.898-2.707,15.58
		c-1.615,1.902-4.123,3.102-6.836,3.102C20.856,180.137,18.342,178.938,16.732,177.035"/>
	<path fill="#010101" d="M163.911,158.246h-20.47v9.121h10.012c-0.084,7.887-1.091,7.783-2.66,9.848
		c-1.373,1.805-4.105,2.641-6.892,2.814c-2.741,0.172-5.479-0.91-7.113-2.814c-2.286-2.682-2.607-5.68-2.607-15.76
		c0-10.082,0.462-12.902,2.748-15.58c1.634-1.906,4.106-3.016,6.853-3.016c2.753,0,5.378,1.109,7.016,3.016
		c1.165,1.362,1.854,2.768,2.252,5.139h10.601c-0.451-4.795-1.855-8.324-5.082-11.801c-3.692-3.975-8.809-5.923-14.789-5.923
		c-5.973,0-10.846,2.105-14.696,5.923c-5.507,5.461-5.432,11.616-5.432,22.299c0,10.682-0.075,16.836,5.432,22.295
		c3.85,3.82,8.723,5.926,14.696,5.926c5.98,0,10.985-2.055,14.789-5.926c3.637-3.701,5.18-9.201,5.314-16.439h0.029V158.246z"/>
	<path fill="#010101" d="M214.684,161.676c0,0-0.008,0-0.008-0.002v-27.767h-10.435v27.704h-0.004c0,11.1-0.181,12.92-2.57,15.535
		c-1.68,1.84-4.292,3.043-7.017,3.043c-2.719,0-5.243-1.191-6.861-3.084c-2.262-2.666-2.453-3.758-2.43-15.508h-0.006v-27.69
		h-10.436v28.185c0.003,12.625,0.176,16.369,5.256,21.674c3.721,3.887,8.486,5.967,14.398,5.967c5.918,0,10.925-2.055,14.738-5.854
		C214.755,178.451,214.927,172.553,214.684,161.676"/>
	<path fill="#010101" d="M406.875,161.676c0,0-0.006,0-0.006-0.002v-27.767h-10.436v27.704h-0.004c0,11.1,0.125,13.5-2.264,16.115
		c-1.68,1.84-4.064,2.455-6.789,2.455c-2.719,0-4.332-1.432-6.414-3.172l-6.926,7.029c4.436,3.889,7.301,5.527,12.965,5.527
		c7.881,0,11.266-1.83,15.08-5.631C407.528,178.508,407.118,172.553,406.875,161.676"/>
	<rect x="1.455" y="204.967" fill="#ED1C24" width="455.3" height="6.941"/>
	<polygon fill="#010101" points="12.91,253.101 9.908,253.101 1.545,228.714 5.546,228.714 11.409,246.456 17.269,228.714 
		21.343,228.714 	"/>
	<rect x="24.954" y="228.714" fill="#010101" width="3.858" height="24.387"/>
	<polygon fill="#010101" points="35.568,253.101 35.568,228.714 51.826,228.714 51.826,232.037 39.428,232.037 39.428,239.161 
		50.006,239.161 50.006,242.448 39.428,242.448 39.428,249.778 51.826,249.778 51.826,253.101 	"/>
	<polygon fill="#010101" points="72.842,253.101 61.084,235.942 61.084,253.101 57.226,253.101 57.226,228.714 60.762,228.714 
		72.521,245.841 72.521,228.714 76.379,228.714 76.379,253.101 	"/>
	<polygon fill="#010101" points="98.752,253.101 86.994,235.942 86.994,253.101 83.133,253.101 83.133,228.714 86.672,228.714 
		98.428,245.841 98.428,228.714 102.289,228.714 102.289,253.101 	"/>
	<path fill="#010101" d="M123.661,253.101l-1.751-4.898h-10.042l-1.752,4.898h-4.108l9.326-24.387h3.109l9.328,24.387H123.661z
		 M116.979,234.228l-3.967,10.824h7.827L116.979,234.228z"/>
	<rect x="140.171" y="228.714" fill="#010101" width="3.86" height="24.387"/>
	<polygon fill="#010101" points="166.403,253.101 154.645,235.942 154.645,253.101 150.786,253.101 150.786,228.714 
		154.323,228.714 166.082,245.841 166.082,228.714 169.94,228.714 169.94,253.101 	"/>
	<path fill="#010101" d="M183.449,253.306c-3.824,0-6.575-0.857-9.005-3.219l2.574-2.432c1.858,1.779,3.894,2.328,6.504,2.328
		c3.323,0,5.252-1.369,5.252-3.732c0-1.063-0.322-1.953-1-2.533c-0.643-0.584-1.287-0.824-2.788-1.029l-3.001-0.41
		c-2.073-0.275-3.717-0.961-4.824-1.953c-1.251-1.129-1.858-2.67-1.858-4.658c0-4.246,3.215-7.158,8.503-7.158
		c3.36,0,5.719,0.822,7.898,2.776l-2.466,2.329c-1.571-1.439-3.393-1.885-5.539-1.885c-3.001,0-4.646,1.645-4.646,3.803
		c0,0.889,0.288,1.676,0.966,2.26c0.642,0.547,1.681,0.957,2.858,1.129l2.897,0.412c2.357,0.342,3.678,0.891,4.753,1.814
		c1.392,1.164,2.07,2.91,2.07,5C192.597,250.634,188.774,253.306,183.449,253.306"/>
	<path fill="#010101" d="M206.609,253.306c-5.183,0-9.112-3.391-9.112-8.424v-16.168h3.857v15.996c0,3.252,2.072,5.273,5.255,5.273
		c3.179,0,5.288-2.021,5.288-5.273v-15.996h3.859v16.168C215.756,249.915,211.789,253.306,206.609,253.306"/>
	<path fill="#010101" d="M236.162,253.101l-5.362-10.275h-4.823v10.275h-3.858v-24.387h9.862c4.825,0,7.897,2.98,7.897,7.125
		c0,3.494-2.213,5.719-5.073,6.473l5.861,10.789H236.162z M231.696,232.038h-5.719v7.637h5.719c2.574,0,4.324-1.404,4.324-3.801
		C236.021,233.476,234.271,232.038,231.696,232.038"/>
	<path fill="#010101" d="M260.251,253.101l-1.748-4.898h-10.045l-1.75,4.898h-4.109l9.326-24.387h3.109l9.326,24.387H260.251z
		 M253.566,234.228l-3.963,10.824h7.822L253.566,234.228z"/>
	<polygon fill="#010101" points="283.695,253.101 271.939,235.942 271.939,253.101 268.08,253.101 268.08,228.714 271.617,228.714 
		283.375,245.841 283.375,228.714 287.234,228.714 287.234,253.101 	"/>
	<path fill="#010101" d="M302.207,253.306c-2.645,0-4.93-0.926-6.68-2.604c-2.502-2.398-2.469-5.102-2.469-9.795
		c0-4.691-0.033-7.396,2.469-9.795c1.75-1.678,4.035-2.604,6.68-2.604c3.184,0,5.217,1.098,7.113,2.879l-2.574,2.5
		c-1.322-1.268-2.43-2.057-4.539-2.057c-1.5,0-2.857,0.549-3.75,1.475c-1.25,1.301-1.502,2.705-1.502,7.602
		c0,4.898,0.252,6.301,1.502,7.604c0.893,0.924,2.25,1.473,3.75,1.473c2.109,0,3.217-0.787,4.539-2.055l2.574,2.5
		C307.423,252.21,305.39,253.306,302.207,253.306"/>
	<polygon fill="#010101" points="314.611,253.101 314.611,228.714 330.87,228.714 330.87,232.037 318.471,232.037 318.471,239.161 
		329.047,239.161 329.047,242.448 318.471,242.448 318.471,249.778 330.87,249.778 330.87,253.101 	"/>
	<path fill="#010101" d="M360.102,250.497c-1.785,1.814-4.146,2.809-6.93,2.809c-2.646,0-4.934-0.926-6.686-2.604
		c-2.5-2.398-2.463-5.102-2.463-9.795c0-4.691-0.037-7.396,2.463-9.795c1.752-1.678,3.969-2.604,6.686-2.604
		c3.467,0,5.395,1.027,7.682,3.221l-2.609,2.498c-1.605-1.539-2.785-2.396-5.072-2.396c-1.502,0-2.896,0.582-3.791,1.51
		c-1.248,1.301-1.5,2.67-1.5,7.566c0,4.898,0.252,6.301,1.5,7.604c0.895,0.924,2.289,1.473,3.791,1.473
		c1.678,0,3.072-0.615,4.074-1.713c0.928-0.992,1.25-2.363,1.25-3.869v-1.336h-5.324v-3.148h9.184v3.662
		C362.356,246.729,361.784,248.784,360.102,250.497"/>
	<path fill="#010101" d="M382.01,253.101l-5.357-10.275h-4.826v10.275h-3.859v-24.387h9.861c4.824,0,7.898,2.98,7.898,7.125
		c0,3.494-2.215,5.719-5.076,6.473l5.861,10.789H382.01z M377.543,232.038h-5.717v7.637h5.717c2.572,0,4.326-1.404,4.326-3.801
		C381.87,233.476,380.116,232.038,377.543,232.038"/>
	<path fill="#010101" d="M406.418,250.702c-1.75,1.678-4.002,2.604-6.721,2.604c-2.715,0-4.93-0.926-6.678-2.604
		c-2.504-2.398-2.469-5.102-2.469-9.795c0-4.691-0.035-7.396,2.469-9.796c1.748-1.677,3.963-2.603,6.678-2.603
		c2.719,0,4.971,0.926,6.721,2.603c2.502,2.399,2.43,5.104,2.43,9.796C408.848,245.601,408.92,248.304,406.418,250.702
		 M403.489,233.341c-0.896-0.928-2.287-1.51-3.791-1.51c-1.498,0-2.895,0.582-3.787,1.51c-1.246,1.301-1.5,2.67-1.5,7.566
		c0,4.898,0.254,6.268,1.5,7.57c0.893,0.924,2.289,1.506,3.787,1.506c1.504,0,2.895-0.582,3.791-1.506
		c1.25-1.303,1.502-2.672,1.502-7.57C404.991,236.011,404.739,234.642,403.489,233.341"/>
	<path fill="#010101" d="M423.396,253.306c-5.182,0-9.113-3.391-9.113-8.424v-16.168h3.859v15.996c0,3.252,2.072,5.273,5.254,5.273
		c3.18,0,5.287-2.021,5.287-5.273v-15.996h3.861v16.168C432.544,249.915,428.578,253.306,423.396,253.306"/>
	<path fill="#010101" d="M448.554,243.511h-5.789v9.59h-3.859v-24.387h9.648c4.971,0,8.146,3.152,8.146,7.398
		C456.701,240.36,453.525,243.511,448.554,243.511 M448.341,232.038h-5.576v8.117h5.576c2.68,0,4.5-1.473,4.5-4.043
		C452.841,233.544,451.021,232.038,448.341,232.038"/>
	<g>
		<rect x="378.822" y="1" fill="#FFFFFF" width="38.352" height="38.352"/>
		<rect x="378.822" y="39.352" fill="#ED1C24" width="38.352" height="38.352"/>
		<rect x="340.47" y="1" fill="#ED1C24" width="38.352" height="38.352"/>
		<rect x="417.173" y="1" fill="#ED1C24" width="38.352" height="38.352"/>
		<path fill="#FFFFFF" d="M378.822,77.703V39.352H340.47v0.196v19.32c0,6.88,0.907,13.157,2.556,18.836H378.822z"/>
		<path fill="#FFFFFF" d="M378.822,113.804c3.347,1.035,6.816,1.782,10.362,2.251h17.724c3.514-0.465,6.95-1.204,10.266-2.225
			V77.703h-38.352V113.804z"/>
		<path fill="#FFFFFF" d="M417.173,77.703h35.804c1.644-5.679,2.548-11.956,2.548-18.836v-19.32v-0.196h-38.352V77.703z"/>
		<path fill="#ED1C24" d="M452.977,77.703h-35.804v36.126C433.871,108.685,447.534,96.514,452.977,77.703z"/>
		<path fill="#ED1C24" d="M378.822,113.804V77.703h-35.796C348.478,96.481,362.143,108.644,378.822,113.804z"/>
		<g>
			<path fill="#ED1C24" d="M398.047,117.641c-15.811,0-30.312-5.299-40.831-14.921C345.607,92.1,339.47,76.936,339.47,58.867V0
				h117.055v58.867c0,18.074-6.119,33.237-17.695,43.852C428.334,112.341,413.851,117.641,398.047,117.641z M341.47,2v56.867
				c0,39.219,28.416,56.773,56.577,56.773c28.112,0,56.478-17.555,56.478-56.773V2H341.47z"/>
		</g>
	</g>
</g>
</svg>
